<?xml version="1.0" encoding="utf-8"?>
<!-- Generator: Adobe Illustrator 16.0.0, SVG Export Plug-In . SVG Version: 6.00 Build 0)  -->
<!DOCTYPE svg PUBLIC "-//W3C//DTD SVG 1.1//EN" "http://www.w3.org/Graphics/SVG/1.1/DTD/svg11.dtd">
<svg version="1.1" id="Layer_1" xmlns="http://www.w3.org/2000/svg" xmlns:xlink="http://www.w3.org/1999/xlink" x="0px" y="0px"
	 width="10px" height="10px" viewBox="0 0 10 10" enable-background="new 0 0 10 10" xml:space="preserve">
<g>
	<g>
		<path d="M1.328,10.039c-0.091,0-0.182,0-0.273,0c-0.121-0.043-0.247-0.076-0.362-0.13C0.316,9.733,0.138,9.406,0.039,9.023
			c0-0.091,0-0.183,0-0.273c0.013-0.036,0.029-0.071,0.04-0.108c0.215-0.776,0.949-1.109,1.667-0.749
			c0.106,0.053,0.16,0.023,0.232-0.049c0.495-0.499,0.994-0.995,1.49-1.492C3.499,6.32,3.524,6.284,3.518,6.291
			C3.392,5.978,3.235,5.706,3.179,5.415C3.123,5.124,3.167,4.813,3.167,4.489C2.853,4.363,2.518,4.229,2.181,4.095
			C2.129,4.157,2.089,4.208,2.046,4.257c-0.4,0.457-1.09,0.512-1.567,0.135C0.23,4.195,0.12,3.924,0.039,3.633
			c0-0.091,0-0.182,0-0.273c0.022-0.067,0.046-0.135,0.067-0.202C0.28,2.609,0.819,2.281,1.385,2.379
			c0.582,0.101,0.978,0.604,0.951,1.198C2.333,3.644,2.351,3.755,2.392,3.774c0.311,0.139,0.631,0.259,0.945,0.384
			C3.775,3.422,4.41,3.096,5.234,3.125C5.28,2.896,5.309,2.683,5.367,2.478c0.042-0.152,0.011-0.225-0.132-0.305
			C4.697,1.874,4.516,1.197,4.804,0.651c0.186-0.351,0.5-0.512,0.86-0.612c0.091,0,0.182,0,0.273,0
			C6.006,0.06,6.073,0.081,6.142,0.102c0.477,0.146,0.803,0.582,0.807,1.08c0.004,0.51-0.311,0.999-0.806,1.085
			C5.785,2.328,5.694,2.508,5.671,2.805c0,0.006-0.003,0.013-0.004,0.019c-0.071,0.349-0.059,0.329,0.23,0.518
			C6.181,3.528,6.434,3.759,6.726,3.99c0.271-0.135,0.582-0.297,0.899-0.445c0.127-0.06,0.156-0.124,0.136-0.268
			c-0.065-0.45,0.094-0.825,0.464-1.088c0.369-0.262,0.771-0.285,1.181-0.087c0.364,0.176,0.531,0.499,0.634,0.867
			c0,0.104,0,0.208,0,0.312c-0.02,0.054-0.042,0.107-0.06,0.162C9.825,3.94,9.384,4.26,8.864,4.255
			C8.486,4.251,8.196,4.072,7.95,3.79C7.573,3.978,7.203,4.163,6.843,4.344C6.84,4.377,6.836,4.391,6.839,4.403
			C6.848,4.44,6.859,4.478,6.87,4.515c0.174,0.567,0.062,1.092-0.242,1.585c-0.07,0.114-0.219,0.228-0.209,0.33
			c0.012,0.12,0.154,0.229,0.243,0.342c0.295,0.37,0.592,0.739,0.886,1.106C7.634,7.848,7.7,7.822,7.768,7.801
			c0.499-0.158,1.041,0.037,1.313,0.473c0.276,0.442,0.24,1.022-0.139,1.383c-0.18,0.171-0.438,0.258-0.661,0.383
			c-0.104,0-0.208,0-0.312,0c-0.023-0.012-0.045-0.026-0.069-0.033C7.04,9.771,6.723,8.965,7.2,8.21
			c0.064-0.101,0.022-0.149-0.032-0.217c-0.326-0.406-0.654-0.81-0.974-1.221C6.116,6.672,6.057,6.65,5.939,6.715
			C5.466,6.975,4.965,7.031,4.454,6.85c-0.223-0.079-0.43-0.201-0.657-0.31C3.273,7.063,2.742,7.599,2.206,8.129
			C2.122,8.211,2.158,8.271,2.198,8.35c0.198,0.384,0.183,0.765-0.034,1.135C1.977,9.804,1.671,9.951,1.328,10.039z"/>
		<path fill-rule="evenodd" clip-rule="evenodd" fill="#FFFFFF" d="M5.664,0.039C5.304,0.14,4.99,0.301,4.804,0.651
			C4.516,1.197,4.697,1.874,5.235,2.173c0.143,0.08,0.174,0.153,0.132,0.305C5.309,2.683,5.28,2.896,5.234,3.125
			C4.41,3.096,3.775,3.422,3.337,4.158C3.023,4.033,2.703,3.913,2.392,3.774c-0.041-0.019-0.06-0.13-0.056-0.197
			c0.026-0.595-0.37-1.098-0.951-1.198C0.819,2.281,0.28,2.609,0.106,3.157C0.085,3.225,0.062,3.292,0.039,3.359
			c0-1.104,0-2.208,0-3.32C1.914,0.039,3.789,0.039,5.664,0.039z"/>
		<path fill-rule="evenodd" clip-rule="evenodd" fill="#FFFFFF" d="M1.328,10.039c0.343-0.088,0.649-0.235,0.836-0.555
			c0.217-0.37,0.232-0.751,0.034-1.135C2.158,8.271,2.122,8.211,2.206,8.129c0.537-0.53,1.068-1.065,1.591-1.589
			c0.228,0.108,0.435,0.23,0.657,0.31c0.511,0.182,1.012,0.125,1.486-0.135C6.057,6.65,6.116,6.672,6.194,6.772
			c0.319,0.411,0.647,0.814,0.974,1.221C7.223,8.061,7.265,8.109,7.2,8.21c-0.478,0.755-0.16,1.561,0.699,1.796
			c0.024,0.007,0.046,0.021,0.069,0.033C5.755,10.039,3.542,10.039,1.328,10.039z"/>
		<path fill-rule="evenodd" clip-rule="evenodd" fill="#FFFFFF" d="M8.281,10.039c0.223-0.125,0.481-0.212,0.661-0.383
			c0.379-0.36,0.415-0.94,0.139-1.383C8.809,7.838,8.267,7.643,7.768,7.801C7.7,7.822,7.634,7.848,7.548,7.879
			C7.254,7.512,6.957,7.143,6.662,6.772C6.573,6.66,6.431,6.551,6.419,6.431c-0.01-0.103,0.139-0.216,0.209-0.33
			C6.932,5.607,7.044,5.083,6.87,4.515C6.859,4.478,6.848,4.44,6.839,4.403C6.836,4.391,6.84,4.377,6.843,4.344
			c0.36-0.181,0.73-0.366,1.107-0.554c0.246,0.283,0.536,0.462,0.914,0.465C9.384,4.26,9.825,3.94,9.979,3.443
			c0.018-0.055,0.04-0.108,0.06-0.162c0,2.252,0,4.505,0,6.758C9.453,10.039,8.867,10.039,8.281,10.039z"/>
		<path fill-rule="evenodd" clip-rule="evenodd" fill="#FFFFFF" d="M0.039,3.633C0.12,3.924,0.23,4.195,0.479,4.392
			c0.477,0.377,1.167,0.321,1.567-0.135c0.042-0.049,0.083-0.1,0.135-0.162c0.336,0.134,0.672,0.268,0.986,0.394
			c0,0.325-0.044,0.635,0.012,0.926c0.056,0.292,0.213,0.563,0.339,0.876c0.006-0.007-0.02,0.029-0.051,0.061
			c-0.497,0.497-0.995,0.993-1.49,1.492C1.905,7.916,1.851,7.945,1.745,7.893c-0.718-0.36-1.452-0.027-1.667,0.749
			c-0.01,0.037-0.026,0.072-0.04,0.108C0.039,7.044,0.039,5.338,0.039,3.633z"/>
		<path fill-rule="evenodd" clip-rule="evenodd" fill="#FFFFFF" d="M10.039,2.969c-0.103-0.368-0.27-0.69-0.634-0.867
			C8.996,1.904,8.594,1.927,8.225,2.189c-0.37,0.263-0.529,0.638-0.464,1.088C7.781,3.42,7.752,3.485,7.625,3.544
			C7.308,3.692,6.996,3.854,6.726,3.99C6.434,3.759,6.181,3.528,5.897,3.342c-0.289-0.189-0.302-0.169-0.23-0.518
			c0.001-0.006,0.004-0.013,0.004-0.019c0.022-0.297,0.113-0.477,0.471-0.539c0.495-0.086,0.81-0.575,0.806-1.085
			c-0.004-0.498-0.33-0.934-0.807-1.08C6.073,0.081,6.006,0.06,5.938,0.039c1.367,0,2.734,0,4.102,0
			C10.039,1.016,10.039,1.992,10.039,2.969z"/>
		<path fill-rule="evenodd" clip-rule="evenodd" fill="#FFFFFF" d="M0.039,9.023c0.099,0.383,0.277,0.71,0.654,0.886
			c0.115,0.054,0.241,0.087,0.362,0.13c-0.338,0-0.677,0-1.016,0C0.039,9.7,0.039,9.362,0.039,9.023z"/>
	</g>
</g>
</svg>
