<?xml version="1.0" encoding="utf-8"?>
<!-- Generator: Adobe Illustrator 16.0.0, SVG Export Plug-In . SVG Version: 6.00 Build 0)  -->
<!DOCTYPE svg PUBLIC "-//W3C//DTD SVG 1.1//EN" "http://www.w3.org/Graphics/SVG/1.1/DTD/svg11.dtd">
<svg version="1.1" id="Layer_1" xmlns="http://www.w3.org/2000/svg" xmlns:xlink="http://www.w3.org/1999/xlink" x="0px" y="0px"
	 width="612px" height="792px" viewBox="0 0 612 792" enable-background="new 0 0 612 792" xml:space="preserve">
<g>
	<g>
		<path fill="#FFFFFF" d="M296.081,386.081c6.934,0,13.867,0,20.8,0c0,6.934,0,13.867,0,20.8c-6.933,0-13.866,0-20.8,0
			C296.081,399.948,296.081,393.015,296.081,386.081z M306.471,406.761c3.264,0,6.526-0.006,9.79,0.008
			c0.385,0.002,0.509-0.098,0.509-0.497c-0.012-6.526-0.012-13.053,0-19.58c0-0.398-0.123-0.498-0.509-0.498
			c-6.513,0.011-13.026,0.011-19.539-0.001c-0.405,0-0.531,0.099-0.53,0.519c0.013,6.513,0.013,13.026,0,19.539
			c-0.001,0.419,0.124,0.521,0.529,0.52C299.971,406.754,303.221,406.761,306.471,406.761z"/>
		<path fill-rule="evenodd" clip-rule="evenodd" d="M306.471,406.761c-3.25,0-6.5-0.007-9.749,0.009
			c-0.406,0.002-0.53-0.101-0.529-0.52c0.013-6.513,0.013-13.025,0-19.539c-0.001-0.419,0.125-0.519,0.53-0.519
			c6.513,0.012,13.026,0.012,19.539,0.001c0.386,0,0.509,0.099,0.509,0.498c-0.012,6.527-0.012,13.054,0,19.58
			c0,0.399-0.124,0.499-0.509,0.497C312.997,406.755,309.734,406.761,306.471,406.761z M306.46,406.669c3.209,0,6.417,0.001,9.626,0
			c0.581,0,0.583-0.002,0.583-0.593c0-6.403,0-12.808,0-19.211c-0.001-0.567-0.005-0.572-0.562-0.572
			c-6.418-0.001-12.835-0.001-19.253,0c-0.557,0-0.562,0.005-0.562,0.571c0,6.404,0,12.808,0,19.212
			c0,0.591,0.002,0.593,0.581,0.593C300.069,406.67,303.265,406.669,306.46,406.669z"/>
		<path fill-rule="evenodd" clip-rule="evenodd" fill="#FFFFFF" d="M306.46,406.669c-3.195,0-6.391,0.001-9.586,0
			c-0.579,0-0.581-0.002-0.581-0.593c0-6.404,0-12.808,0-19.212c0-0.566,0.005-0.571,0.562-0.571c6.417-0.001,12.835-0.001,19.253,0
			c0.557,0,0.561,0.005,0.562,0.572c0,6.404,0,12.808,0,19.211c0,0.591-0.002,0.593-0.583,0.593
			C312.877,406.67,309.669,406.669,306.46,406.669z M313.524,402.277c-0.008-0.056-0.017-0.232-0.053-0.403
			c-0.188-0.877-1.248-1.658-2.396-1.246c-0.181,0.065-0.338,0.129-0.498-0.078c-0.539-0.695-1.093-1.379-1.647-2.062
			c-0.146-0.18-0.135-0.322,0.012-0.499c0.705-0.851,0.928-1.818,0.634-2.887c-0.07-0.254,0.013-0.377,0.226-0.479
			c0.391-0.187,0.786-0.367,1.16-0.585c0.324-0.189,0.548-0.177,0.84,0.105c0.562,0.542,1.459,0.594,2.11,0.198
			c0.69-0.419,1.043-1.202,0.873-1.941c-0.229-0.997-1.113-1.613-2.076-1.446c-1.04,0.181-1.68,1.026-1.538,2.075
			c0.033,0.244-0.011,0.377-0.233,0.481c-0.466,0.219-0.926,0.449-1.381,0.689c-0.207,0.11-0.325,0.052-0.485-0.106
			c-0.314-0.311-0.641-0.623-1.01-0.86c-0.575-0.369-0.568-0.34-0.481-1.037c0.063-0.506,0.217-0.799,0.797-0.901
			c0.833-0.146,1.338-0.927,1.319-1.809c-0.017-0.803-0.624-1.543-1.414-1.725c-0.802-0.184-1.639,0.2-2.028,0.929
			c-0.4,0.751-0.304,1.758,0.388,2.204c0.609,0.392,0.618,0.81,0.437,1.371c-0.017,0.051-0.028,0.105-0.032,0.159
			c-0.025,0.338-0.204,0.442-0.539,0.437c-0.841-0.012-1.549,0.326-2.141,0.915c-0.239,0.238-0.442,0.637-0.712,0.687
			c-0.295,0.054-0.647-0.215-0.978-0.335c-0.385-0.139-0.793-0.249-0.638-0.814c0.019-0.069-0.031-0.157-0.047-0.236
			c-0.171-0.868-0.811-1.447-1.673-1.513c-0.779-0.06-1.549,0.427-1.831,1.156c-0.307,0.793-0.052,1.659,0.64,2.173
			c0.632,0.469,1.63,0.537,2.169-0.065c0.514-0.574,0.924-0.386,1.431-0.154c0.172,0.079,0.349,0.148,0.527,0.211
			c0.231,0.082,0.331,0.18,0.278,0.476c-0.149,0.827-0.015,1.625,0.47,2.327c0.17,0.246,0.132,0.391-0.064,0.583
			c-0.764,0.748-1.523,1.503-2.269,2.27c-0.227,0.232-0.403,0.297-0.731,0.144c-0.88-0.412-1.942-0.026-2.369,0.805
			c-0.433,0.842-0.155,1.915,0.624,2.403c0.688,0.433,1.6,0.374,2.196-0.141c0.622-0.536,0.82-1.386,0.456-2.174
			c-0.134-0.29-0.088-0.458,0.127-0.667c0.776-0.756,1.54-1.524,2.299-2.297c0.189-0.193,0.329-0.232,0.584-0.07
			c1.014,0.641,2.083,0.715,3.164,0.173c0.266-0.133,0.408-0.081,0.576,0.137c0.471,0.611,0.944,1.222,1.446,1.807
			c0.235,0.274,0.29,0.473,0.073,0.804c-0.408,0.623-0.297,1.507,0.192,2.081c0.49,0.575,1.281,0.792,1.989,0.545
			C313.037,403.829,313.515,403.171,313.524,402.277z"/>
		<path fill-rule="evenodd" clip-rule="evenodd" d="M313.524,402.277c-0.01,0.894-0.487,1.552-1.229,1.811
			c-0.708,0.247-1.499,0.03-1.989-0.545c-0.489-0.574-0.601-1.458-0.192-2.081c0.217-0.331,0.162-0.529-0.073-0.804
			c-0.502-0.585-0.976-1.195-1.446-1.807c-0.168-0.218-0.311-0.27-0.576-0.137c-1.081,0.542-2.15,0.468-3.164-0.173
			c-0.256-0.162-0.395-0.123-0.584,0.07c-0.759,0.772-1.523,1.541-2.299,2.297c-0.215,0.209-0.262,0.377-0.127,0.667
			c0.364,0.788,0.166,1.638-0.456,2.174c-0.596,0.515-1.508,0.573-2.196,0.141c-0.778-0.488-1.057-1.562-0.624-2.403
			c0.427-0.831,1.489-1.217,2.369-0.805c0.329,0.153,0.505,0.089,0.731-0.144c0.746-0.767,1.505-1.521,2.269-2.27
			c0.196-0.192,0.234-0.337,0.064-0.583c-0.485-0.702-0.62-1.5-0.47-2.327c0.053-0.295-0.047-0.394-0.278-0.476
			c-0.178-0.063-0.355-0.132-0.527-0.211c-0.507-0.232-0.917-0.42-1.431,0.154c-0.539,0.602-1.538,0.535-2.169,0.065
			c-0.691-0.514-0.947-1.38-0.64-2.173c0.282-0.729,1.052-1.215,1.831-1.156c0.862,0.065,1.502,0.645,1.673,1.513
			c0.016,0.08,0.066,0.167,0.047,0.236c-0.155,0.566,0.253,0.676,0.638,0.814c0.33,0.12,0.683,0.389,0.978,0.335
			c0.271-0.05,0.473-0.449,0.712-0.687c0.592-0.588,1.3-0.926,2.141-0.915c0.335,0.005,0.514-0.099,0.539-0.437
			c0.004-0.053,0.016-0.107,0.032-0.159c0.182-0.561,0.173-0.979-0.437-1.371c-0.691-0.445-0.788-1.452-0.388-2.204
			c0.39-0.729,1.227-1.113,2.028-0.929c0.79,0.182,1.397,0.922,1.414,1.725c0.019,0.882-0.486,1.663-1.319,1.809
			c-0.58,0.102-0.733,0.395-0.797,0.901c-0.087,0.697-0.094,0.668,0.481,1.037c0.369,0.237,0.695,0.55,1.01,0.86
			c0.16,0.158,0.278,0.216,0.485,0.106c0.455-0.241,0.915-0.471,1.381-0.689c0.223-0.104,0.267-0.238,0.233-0.481
			c-0.142-1.049,0.498-1.894,1.538-2.075c0.963-0.167,1.848,0.449,2.076,1.446c0.17,0.739-0.183,1.522-0.873,1.941
			c-0.651,0.396-1.549,0.344-2.11-0.198c-0.292-0.282-0.516-0.294-0.84-0.105c-0.374,0.218-0.77,0.398-1.16,0.585
			c-0.213,0.102-0.296,0.225-0.226,0.479c0.294,1.068,0.071,2.036-0.634,2.887c-0.146,0.177-0.158,0.319-0.012,0.499
			c0.555,0.684,1.108,1.367,1.647,2.062c0.16,0.207,0.317,0.144,0.498,0.078c1.147-0.412,2.207,0.369,2.396,1.246
			C313.508,402.045,313.517,402.222,313.524,402.277z"/>
	</g>
</g>
</svg>
