<?xml version="1.0" encoding="utf-8"?>
<!-- Generator: Adobe Illustrator 16.0.0, SVG Export Plug-In . SVG Version: 6.00 Build 0)  -->
<!DOCTYPE svg PUBLIC "-//W3C//DTD SVG 1.1//EN" "http://www.w3.org/Graphics/SVG/1.1/DTD/svg11.dtd">
<svg version="1.1" id="Layer_1" xmlns="http://www.w3.org/2000/svg" xmlns:xlink="http://www.w3.org/1999/xlink" x="0px" y="0px"
	 width="612px" height="792px" viewBox="0 0 612 792" enable-background="new 0 0 612 792" xml:space="preserve">
<g id="lEOjLi.tif">
	<g>
		<path fill-rule="evenodd" clip-rule="evenodd" fill="#F7941E" d="M320.062,163.976c7.41,1.66,14.922,2.96,22.213,5.038
			c48.475,13.817,84.734,56.407,90.851,106.457c6.692,54.756-20.362,105.779-69.331,130.488c-3.043,1.537-4.232,3.592-4.867,6.782
			c-11.79,59.267-23.691,118.511-35.555,177.763c-5.475,27.348-10.914,54.701-16.375,82.053c-0.121,0.605-0.322,1.197-1.381,1.906
			c-1.463-6.98-2.98-13.951-4.381-20.943c-14.313-71.459-28.611-142.922-42.904-214.385c-1.758-8.791-3.58-17.572-5.134-26.4
			c-0.565-3.21-1.861-5.169-4.893-6.761c-38.141-20.028-61.965-51.183-68.751-93.714c-11.127-69.739,34.12-130.473,97.508-145.206
			c4.97-1.155,10-2.058,15.002-3.077C301.396,163.976,310.729,163.976,320.062,163.976z M369.797,292.144
			c0.021-35.104-28.381-63.827-63.19-63.902c-35.67-0.077-64.2,28.228-64.32,63.811c-0.117,34.828,28.591,63.617,63.479,63.658
			C341.127,355.751,369.776,327.311,369.797,292.144z"/>
	</g>
</g>
</svg>
